HIERARCHY
ROOT Hips
{
	OFFSET -3.958830 18.904000 13.208200
	CHANNELS 6 Xposition Yposition Zposition Zrotation Yrotation Xrotation 
	JOINT LHipJoint
	{
		OFFSET 0.000000 0.000000 0.000000
		CHANNELS 3 Zrotation Yrotation Xrotation
		JOINT LeftUpLeg
		{
			OFFSET 1.800000 -1.400000 0.085000
			CHANNELS 3 Zrotation Yrotation Xrotation
			JOINT LeftLeg
			{
				OFFSET 2.215000 -6.000000 0.000000
				CHANNELS 3 Zrotation Yrotation Xrotation
				JOINT LeftFoot
				{
					OFFSET 2.500000 -6.900000 0.000000
					CHANNELS 3 Zrotation Yrotation Xrotation
					JOINT LeftToeBase
					{
						OFFSET 0.200000 -0.500000 1.950000
						CHANNELS 3 Zrotation Yrotation Xrotation
						End Site
						{
							OFFSET 0.000000 0.000000 0.000000
						}
					}
				}
			}
		}
	}
	JOINT RHipJoint
	{
		OFFSET 0.000000 0.000000 0.000000
		CHANNELS 3 Zrotation Yrotation Xrotation
		JOINT RightUpLeg
		{
			OFFSET -1.800000 -1.400000 0.085000
			CHANNELS 3 Zrotation Yrotation Xrotation
			JOINT RightLeg
			{
				OFFSET -2.215000 -6.000000 0.000000
				CHANNELS 3 Zrotation Yrotation Xrotation
				JOINT RightFoot
				{
					OFFSET -2.500000 -6.900000 0.000000
					CHANNELS 3 Zrotation Yrotation Xrotation
					JOINT RightToeBase
					{
						OFFSET -0.200000 -0.500000 1.950000
						CHANNELS 3 Zrotation Yrotation Xrotation
						End Site
						{
							OFFSET 0.000000 0.000000 0.000000
						}
					}
				}
			}
		}
	}
	JOINT LowerBack
	{
		OFFSET 0.000000 0.000000 0.000000
		CHANNELS 3 Zrotation Yrotation Xrotation
		JOINT Spine
		{
			OFFSET -0.087000 1.940000 -0.288900
			CHANNELS 3 Zrotation Yrotation Xrotation
			JOINT Spine1
			{
				OFFSET 0.000000 1.950000 0.060000
				CHANNELS 3 Zrotation Yrotation Xrotation
				JOINT Neck
				{
					OFFSET 0.000000 0.000000 0.000000
					CHANNELS 3 Zrotation Yrotation Xrotation
					JOINT Neck1
					{
						OFFSET 0.000000 1.600000 0.340000
						CHANNELS 3 Zrotation Yrotation Xrotation
						JOINT Head
						{
							OFFSET 0.000000 1.667000 -0.240000
							CHANNELS 3 Zrotation Yrotation Xrotation
							End Site
							{
								OFFSET 0.000000 0.000000 0.000000
							}
						}
					}
				}
				JOINT LeftShoulder
				{
					OFFSET 0.000000 0.000000 0.000000
					CHANNELS 3 Zrotation Yrotation Xrotation
					JOINT LeftArm
					{
						OFFSET 2.700000 1.550000 -0.730000
						CHANNELS 3 Zrotation Yrotation Xrotation
						JOINT LeftForeArm
						{
							OFFSET 5.450000 0.000000 0.000000
							CHANNELS 3 Zrotation Yrotation Xrotation
							JOINT LeftHand
							{
								OFFSET 3.450000 0.000000 0.000000
								CHANNELS 3 Zrotation Yrotation Xrotation
								JOINT LeftHandIndex1
								{
									OFFSET 0.750000 0.000000 0.000000
									CHANNELS 3 Zrotation Yrotation Xrotation
									End Site
									{
										OFFSET 0.000000 0.000000 0.000000
									}
								}
							}
						}
					}
				}
				JOINT RightShoulder
				{
					OFFSET 0.000000 0.000000 0.000000
					CHANNELS 3 Zrotation Yrotation Xrotation
					JOINT RightArm
					{
						OFFSET -2.700000 1.550000 -0.730000
						CHANNELS 3 Zrotation Yrotation Xrotation
						JOINT RightForeArm
						{
							OFFSET -5.450000 0.000000 0.000000
							CHANNELS 3 Zrotation Yrotation Xrotation
							JOINT RightHand
							{
								OFFSET -3.450000 0.000000 0.000000
								CHANNELS 3 Zrotation Yrotation Xrotation
								JOINT RightHandIndex1
								{
									OFFSET -0.750000 0.000000 0.000000
									CHANNELS 3 Zrotation Yrotation Xrotation
									End Site
									{
										OFFSET 0.000000 0.000000 0.000000
									}
								}
							}
						}
					}
				}
			}
		}
	}
}
MOTION
Frames: 9
Frame Time: 0.016667
-1.052880 15.653140 0.605080 -4.556338 4.287912 -5.127827 -16.629378 12.428971 7.314101 52.452440 -8.139147 -16.859537 -21.725879 7.803461 1.167142 -0.275898 10.032696 1.276483 0.003010 0.061080 -0.543540 17.639405 -8.644286 -0.786244 -26.792324 -8.101136 -10.176451 -16.598430 -3.576186 24.279033 -0.166526 -5.505867 2.590235 0.494190 1.647420 0.463030 -0.665318 -8.325593 -8.104329 -13.318082 -5.008636 16.800158 1.196485 -2.212634 22.897841 -11.734253 3.121101 -10.024606 -1.732735 0.720036 25.211885 -1.796390 0.141290 -1.783210 23.071943 -8.504323 6.800186 66.517848 -75.911467 -69.934037 75.697736 -18.533850 -24.050305 -5.354892 2.450662 0.035570 1.121430 -0.520620 0.667870 -4.107300 -4.962533 0.491458 23.356448 -14.521125 -11.553255 -25.468901 57.913472 -9.947227 1.094198 -2.293668 -0.707390 0.894030 0.313460 0.307140 
-0.846780 15.656910 0.685070 -3.577533 9.076939 -6.164076 -17.112231 12.813365 8.130042 55.807034 -10.004761 -17.641296 -29.441192 7.796333 -0.030504 -0.120607 10.848666 0.949098 0.017650 0.061650 -0.512810 17.330836 -7.912486 -1.208653 -28.440737 -9.026109 -6.969044 -16.578960 -4.277784 27.117982 -0.290308 -5.913730 2.407281 0.471530 1.601530 0.621790 0.495714 -10.651919 -8.170150 -20.985058 -3.955501 15.995965 3.007340 -2.835919 24.321590 -10.848963 7.639063 -9.897706 5.062236 -5.153064 25.358681 -4.107600 -0.829390 -3.815540 28.467944 -8.522330 1.781520 -17.547086 -87.060124 1.588125 84.349780 -31.838494 -33.181746 -5.796600 1.967669 0.060300 1.171360 -0.452930 0.629390 -12.869216 -5.124707 -0.362284 43.045543 -8.899177 -12.438170 -18.971539 38.400457 -4.467650 1.282745 -2.153836 -0.630090 0.804180 0.375150 0.269930 
-0.618380 15.701730 0.746200 -4.169920 11.505639 -8.202895 -17.027880 12.201535 8.172848 56.949953 -9.290556 -17.000337 -34.866269 8.545918 0.344657 -0.286721 11.598074 0.618213 0.140310 0.243290 -0.517130 17.529324 -7.969865 -1.418507 -28.030025 -8.377968 -4.161090 -16.178149 -4.552768 30.078724 -0.391265 -6.547433 2.109518 0.712530 1.740290 0.748130 0.292261 -9.433800 -7.922166 -21.345549 1.195491 13.481490 6.412106 1.448189 29.237550 -8.068349 13.179806 -8.101831 13.939979 -9.059400 23.914075 -4.198700 -2.740040 -5.485550 32.660012 -16.672969 4.078675 23.403044 -88.390968 -43.271336 93.165485 -42.130371 -44.428014 -6.396357 1.839000 -0.015350 1.353640 -0.538260 0.596650 -23.520189 -3.502435 -1.580893 65.087115 4.161750 1.510752 -28.020341 -21.373135 10.266837 2.149663 -1.742851 -0.640510 0.907820 0.538610 0.242140 
-0.397660 15.787520 0.744100 -4.992149 10.764396 -12.183113 -16.944131 12.079336 7.984773 56.031534 -8.761228 -14.477290 -37.789307 10.060857 2.500314 -0.260936 12.024423 0.538134 0.085430 0.167790 -0.502570 17.570890 -8.247685 -1.393956 -25.945839 -8.051994 -1.687516 -17.025939 -4.224491 32.899165 -0.417084 -6.959624 2.068222 0.737910 1.786990 0.617150 0.125176 -8.574385 -7.715280 -20.912258 4.013009 16.146454 6.907216 5.008704 31.710713 -6.071832 14.168953 -6.941551 16.301118 -11.190497 22.980606 -3.786360 -1.759310 -3.984030 30.269637 -17.670780 6.158962 60.078727 -88.063756 -79.910027 97.846915 -53.551176 -55.059599 -6.451237 1.531267 0.011420 1.388800 -0.624770 0.586520 -24.979518 -2.914444 0.672975 79.789445 4.206747 0.886601 -37.810577 -18.833003 11.724488 2.010595 -1.886734 -0.794320 1.004200 0.528590 0.172200 
-0.182810 15.786080 0.807350 -3.701931 10.664138 -14.747195 -17.036781 12.063859 8.490726 57.057843 -11.260365 -10.714028 -44.628690 9.112554 0.197695 0.443421 12.062010 0.594127 -0.246890 -0.378490 -0.531820 17.430087 -8.285498 -1.363578 -28.186926 -9.588193 -1.612761 -16.968573 -5.257174 35.310488 -0.587707 -6.910830 2.109348 0.097170 1.413820 0.554580 0.360776 -8.836341 -8.280658 -23.838839 4.008441 21.090685 8.614362 5.866180 30.720071 -7.348677 10.811179 -12.540323 10.469726 -10.439263 29.746000 -1.057630 0.061810 -3.653250 22.963935 -9.767489 15.294238 98.374339 -88.565295 -115.344282 122.638920 -60.076411 -93.581201 -5.916388 0.118620 0.380250 0.958420 -0.368290 0.411540 -14.612489 -8.338557 4.100897 81.335103 -11.730325 -25.061318 -29.971000 42.655641 -10.009182 1.454631 -1.660920 -0.684100 0.711710 0.549710 0.097200 
0.048990 15.796360 0.845730 -2.587021 7.874523 -16.313185 -17.280436 12.669723 8.777736 57.009204 -13.026849 -7.206493 -48.248492 8.650776 -0.823330 0.784234 12.117999 0.582162 -0.254310 -0.486930 -0.469010 17.180742 -7.897444 -1.412256 -28.017954 -10.252252 -2.220887 -18.246074 -4.719032 34.310182 -0.666774 -6.419498 2.238221 -0.119770 1.184710 0.512190 0.919249 -10.647671 -8.579334 -27.492616 -1.003797 21.619838 6.303120 -0.083837 26.061836 -6.997750 2.948492 -12.449073 -6.032241 -2.670898 35.911602 2.123670 0.807240 -4.475320 15.034186 -10.193006 7.605496 -53.793898 -60.645365 35.310193 133.961589 -57.837818 -132.039689 -4.297607 2.534580 0.635620 0.649310 -0.172710 0.378250 -6.793990 1.052563 7.950880 73.589823 -16.185519 -31.566700 -2.049962 56.077637 -2.979659 1.228476 -1.777282 -0.610000 0.619000 0.494550 0.078130 
0.257280 15.813390 0.869880 -0.817615 6.605164 -16.788320 -17.135956 12.872714 8.378602 54.379071 -12.406667 -7.365043 -47.806992 11.181372 3.608443 0.885802 12.062765 0.566099 -0.301320 -0.601850 -0.422620 17.153250 -8.202888 -1.146475 -28.629196 -9.693540 -3.416392 -18.967416 -4.136847 31.923546 -0.659750 -5.990166 2.375870 -0.279080 1.037710 0.440320 0.662807 -10.187059 -8.625193 -29.228427 -1.407537 22.479678 7.363291 -1.584530 20.505826 -4.187137 -0.083606 -13.526827 -14.757875 3.506018 41.884362 3.783490 2.368250 -1.486330 8.055201 -8.350024 7.584785 -52.817961 -46.033286 20.788331 172.036466 -67.724313 173.807336 -3.834562 2.794813 0.784770 0.470040 -0.072370 0.328550 -2.805197 2.654803 9.580255 73.084377 -19.273692 -34.048576 9.387105 59.110334 1.657907 1.232978 -1.746156 -0.590310 0.564540 0.466280 0.043810 
0.473110 15.820200 0.887910 0.091081 4.630723 -16.807330 -16.886485 12.723291 7.996830 52.273856 -10.745696 -8.535329 -48.374085 14.078291 8.033680 0.927798 12.027953 0.521202 -0.283680 -0.627070 -0.345580 17.243554 -8.822661 -0.895119 -27.363153 -8.800891 -6.997153 -20.972682 -3.048721 34.058221 -0.735323 -6.082732 2.302387 -0.349000 0.897880 0.412890 0.124306 -8.607577 -8.659702 -27.927700 -0.524493 23.522669 7.765526 -0.913281 13.459942 -1.593960 0.794051 -13.650504 -15.743379 6.873324 50.595047 5.174990 3.735860 1.276900 2.641575 -5.828965 6.276947 -52.307561 -36.467193 15.928616 -153.821658 -66.447189 128.033224 -3.856501 2.659890 0.901240 0.350690 0.017980 0.284730 0.086082 0.643339 10.197947 73.579463 -22.083184 -34.305166 15.831451 59.679413 4.842808 1.284969 -1.633355 -0.564100 0.496990 0.435780 -0.007150 
0.704880 15.851600 0.785630 -0.117312 -0.737313 -18.479346 -16.594025 12.662438 7.440272 50.377050 -8.068396 -8.113419 -46.684179 17.665788 13.798068 0.953206 12.145331 0.445679 -0.221080 -0.583640 -0.213220 17.397955 -9.342653 -0.543634 -23.321733 -6.519612 -12.118354 -24.090243 -0.604948 37.457408 -0.861727 -6.291226 2.193378 -0.364790 0.733610 0.393260 -0.516067 -6.950644 -8.793084 -23.250019 1.418084 28.069024 5.729538 1.095854 7.462304 0.707370 1.461530 -13.924115 -14.813725 8.020846 56.887556 3.645170 5.480050 0.521760 -1.532862 -5.078035 4.774385 -48.818968 -28.575139 11.118975 -138.481885 -62.756234 103.910748 -3.843554 2.788154 1.017070 0.233100 0.138020 0.248210 1.300008 0.907918 10.852621 76.911316 -21.048480 -34.756481 19.234447 60.468977 6.256941 1.415937 -1.484676 -0.539670 0.462220 0.376120 -0.064520 
